# xmcd CD database file
#
# Track frame offsets:
#	150
#	19617
#	76489
#	89471
#	100365
#	121386
#	138173
#	152562
#	166216
#	180695
#	198217
#	221234
#
# Disc length: 3259 seconds
#
# Revision: 0
# Processed by: cddbd v1.5.1PL0 Copyright (c) Steve Scherf et al.
# Submitted via: CDex 1.51
#
DISCID=9a0cb90c
DTITLE=12 Girls Band  - Mei Li Yin Yue Hui CD2
DYEAR=2003
DGENRE=New Age
TTITLE0=Freedom
TTITLE1=Thanks For Age
TTITLE2=Take Five
TTITLE3=Rhythm Within
TTITLE4=Kangding Qingge
TTITLE5=Victoria's Smile
TTITLE6=Smiling Proudly In Rivers And Lakes
TTITLE7=Appointing Mongolian House
TTITLE8=I Can't Be Your Man
TTITLE9=Hi ! salute To Bach
TTITLE10=No Word
TTITLE11=Pronunciation Of Love
EXTD=YEAR: 2003
EXTT0=
EXTT1=
EXTT2=
EXTT3=
EXTT4=
EXTT5=
EXTT6=
EXTT7=
EXTT8=
EXTT9=
EXTT10=
EXTT11=
PLAYORDER=
